<svg xmlns="http://www.w3.org/2000/svg" viewBox="0 0 107.197 73.653">
  <g fill="#d70751">
    <path d="M82.296 28.91c-.907.012.17.466 1.354.649.329-.256.624-.513.888-.765-.736.18-1.486.185-2.242.116m4.864-1.213c.542-.745.936-1.561 1.075-2.404-.122.6-.447 1.12-.755 1.668-1.695 1.067-.16-.634-.001-1.281-1.822 2.295-.252 1.376-.318 2.017m1.797-4.674c.11-1.633-.32-1.116-.466-.494.17.088.303 1.151.466.494M78.857.706c.484.086 1.046.153.965.269.532-.118.651-.223-.965-.27m.966.27-.34.07.317-.029.023-.041"/>
    <path d="M94.913 23.642c.054 1.466-.428 2.178-.864 3.438l-.785.39c-.641 1.246.064.791-.395 1.782-1.003.89-3.038 2.784-3.69 2.958-.476-.01.323-.562.427-.777-1.34.92-1.076 1.38-3.126 1.94l-.06-.133c-5.054 2.378-12.076-2.335-11.984-8.764-.053.408-.153.306-.265.47-.26-3.308 1.528-6.63 4.545-7.989 2.95-1.46 6.41-.861 8.522 1.11-1.16-1.52-3.471-3.133-6.208-2.984-2.683.044-5.193 1.749-6.03 3.6-1.374.865-1.535 3.335-2.133 3.787-.806 5.923 1.515 8.48 5.443 11.49.617.417.174.48.256.797-1.304-.61-2.499-1.533-3.482-2.662.522.763 1.085 1.504 1.812 2.087-1.23-.416-2.875-2.981-3.353-3.086 2.12 3.798 8.603 6.66 11.999 5.24-1.572.058-3.568.032-5.332-.62-.743-.382-1.75-1.172-1.57-1.32 4.634 1.73 9.419 1.31 13.427-1.903 1.02-.795 2.135-2.146 2.457-2.164-.485.73.083.35-.29.994 1.015-1.639-.442-.667 1.05-2.83l.551.759c-.206-1.362 1.69-3.013 1.497-5.165.435-.658.485.709.024 2.222.64-1.679.17-1.949.333-3.335.176.466.411.96.53 1.453-.417-1.623.427-2.733.637-3.676-.207-.091-.643.717-.744-1.2.015-.832.232-.435.315-.64-.162-.095-.591-.733-.852-1.957.188-.288.505.746.763.788-.166-.973-.45-1.715-.463-2.462-.752-1.572-.266.21-.875-.675-.801-2.496.663-.58.763-1.713 1.212 1.757 1.903 4.481 2.222 5.61a22.965 22.965 0 0 0-1.113-3.999c.37.156-.594-2.83.48-.852-1.146-4.214-4.902-8.152-8.357-10 .422.387.955.873.764.949-1.72-1.022-1.417-1.103-1.663-1.535-1.399-.57-1.492.047-2.418.001-2.64-1.4-3.148-1.252-5.577-2.128l.11.517c-1.747-.582-2.036.22-3.925.001-.115-.089.605-.325 1.199-.41-1.69.223-1.612-.334-3.266.06.407-.285.84-.475 1.274-.718-1.378.084-3.291.803-2.701.148C72.544 1.54 68.55 2.948 66.31 5.05l-.07-.471c-1.027 1.232-4.478 3.68-4.753 5.278l-.275.064c-.533.905-.88 1.93-1.303 2.86-.699 1.19-1.025.458-.925.645-1.374 2.787-2.058 5.128-2.647 7.049.42.628.01 3.781.168 6.305-.69 12.466 8.749 24.568 19.065 27.362 1.513.541 3.76.522 5.673.575-2.256-.645-2.547-.341-4.746-1.108-1.586-.747-1.933-1.6-3.056-2.575l.444.786c-2.202-.78-1.28-.965-3.073-1.532l.475-.62c-.714-.054-1.891-1.202-2.213-1.84l-.781.03c-.938-1.156-1.439-1.991-1.402-2.639l-.252.45c-.286-.49-3.454-4.343-1.81-3.446-.306-.278-.712-.453-1.152-1.254l.335-.381c-.79-1.018-1.455-2.322-1.404-2.756.421.569.714.676 1.004.773-1.997-4.953-2.11-.272-3.62-5.042l.318-.025c-.244-.371-.394-.771-.59-1.165l.139-1.386c-1.437-1.66-.402-7.066-.194-10.03.143-1.206 1.2-2.489 2.003-4.502l-.49-.083c.936-1.631 5.342-6.553 7.383-6.3.988-1.242-.197-.005-.39-.317 2.171-2.247 2.854-1.588 4.32-1.992 1.579-.938-1.357.366-.608-.358 2.732-.697 1.936-1.586 5.5-1.94.375.214-.873.33-1.186.608 2.276-1.114 7.202-.86 10.404.617 3.711 1.736 7.884 6.866 8.05 11.691l.187.05c-.095 1.92.293 4.138-.38 6.176l.455-.965"/>
    <path d="m72.399 30.154-.128.635c.596.81 1.07 1.688 1.83 2.319-.548-1.067-.953-1.509-1.702-2.954m1.408-.054c-.315-.35-.501-.77-.711-1.187.2.734.61 1.366.99 2.01l-.279-.823m24.929-5.42-.133.336a16.122 16.122 0 0 1-1.58 5.042 15.892 15.892 0 0 0 1.713-5.377M79.037.27c.612-.223 1.506-.123 2.158-.27-.849.071-1.693.113-2.526.22l.368.05M57.514 11.716c.141 1.307-.983 1.815.249.952.66-1.49-.258-.411-.25-.952m-1.448 6.052c.284-.872.335-1.395.444-1.9-.785 1.003-.362 1.217-.444 1.9"/>
  </g>
  <path fill="#ffa200" d="M24.901 27.625c.907-.012-.17-.466-1.354-.649a12.26 12.26 0 0 0-.888.765c.736-.18 1.486-.185 2.242-.116m-4.864-1.469c-.542.746-.936 1.562-1.074 2.405.122-.6.446-1.12.754-1.668 1.695-1.067.16.633.002 1.28 1.821-2.295.25-1.375.318-2.017m-1.798.764c-.11 1.632.32 1.115.466.493-.169-.088-.303-1.152-.466-.494m10.101.574c-.484-.086-1.046-.153-.965-.269-.532.117-.651.223.965.27"/>
  <path fill="#ffa200" d="m27.374 27.394.34-.07-.317.028-.023.042"/>
  <path fill="#ffa200" d="M12.284 31.27c-.054-1.466.428-2.178.864-3.438l.785-.39c.641-1.247-.064-.791.396-1.782 1.002-.89 3.037-2.785 3.689-2.958.476.01-.322.561-.427.777 1.34-.92 1.076-1.381 3.126-1.941l.06.134c5.054-2.379 12.076 2.334 11.984 8.764.053-.408.153-.306.265-.47.26 3.308-1.528 6.63-4.545 7.988-2.95 1.46-6.41.862-8.522-1.11 1.16 1.521 3.471 3.133 6.209 2.984 2.682-.044 5.192-1.748 6.03-3.6 1.373-.864 1.534-3.334 2.132-3.787.806-5.922-1.515-8.48-5.443-11.49-.616-.416-.173-.48-.256-.797 1.305.61 2.499 1.533 3.482 2.662-.522-.762-1.085-1.504-1.812-2.086 1.231.415 2.875 2.98 3.354 3.085-2.121-3.797-8.603-6.66-12-5.239 1.572-.058 3.568-.032 5.332.62.744.382 1.75 1.171 1.57 1.319-4.633-1.73-9.418-1.31-13.427 1.903-1.02.795-2.135 2.146-2.457 2.165.485-.73-.083-.351.29-.995-1.015 1.64.442.668-1.05 2.83l-.551-.758c.206 1.361-1.69 3.013-1.497 5.165-.435.657-.485-.71-.024-2.222-.64 1.679-.169 1.949-.333 3.334-.176-.466-.411-.96-.53-1.452.417 1.623-.427 2.732-.637 3.676.207.09.644-.717.744 1.199-.015.832-.232.436-.315.641.162.094.591.732.852 1.956-.188.289-.505-.745-.762-.787.165.972.45 1.715.462 2.462.752 1.571.266-.21.876.674.8 2.497-.664.58-.764 1.713-1.212-1.756-1.903-4.48-2.222-5.609a22.965 22.965 0 0 0 1.113 3.998c-.37-.156.594 2.83-.48.853 1.146 4.214 4.902 8.152 8.357 9.999-.421-.387-.955-.872-.764-.948 1.72 1.022 1.417 1.103 1.664 1.535 1.398.57 1.492-.047 2.417-.002 2.64 1.4 3.148 1.252 5.577 2.128l-.11-.517c1.748.583 2.036-.22 3.925 0 .115.088-.605.324-1.199.41 1.69-.223 1.612.334 3.266-.061-.407.286-.84.475-1.274.718 1.378-.084 3.292-.802 2.701-.148 2.248-1.003 6.242-2.412 8.482-4.513l.07.47c1.028-1.232 4.478-3.68 4.753-5.278l.275-.063c.533-.905.88-1.93 1.303-2.86.699-1.191 1.025-.459.925-.646 1.375-2.786 2.058-5.127 2.648-7.048-.42-.628-.01-3.782-.17-6.305.69-12.466-8.748-24.568-19.064-27.362-1.512-.542-3.76-.522-5.673-.576C28.21.84 28.5.536 30.7 1.302c1.586.748 1.933 1.6 3.057 2.575l-.445-.785c2.202.78 1.28.964 3.073 1.532l-.475.62c.714.054 1.891 1.202 2.213 1.84l.782-.031c.938 1.156 1.438 1.992 1.401 2.64l.253-.451c.285.49 3.453 4.343 1.81 3.446.305.278.71.454 1.15 1.254l-.334.382c.79 1.017 1.455 2.321 1.404 2.756-.421-.57-.714-.676-1.004-.774 1.997 4.954 2.11.273 3.62 5.042l-.318.026c.244.37.394.77.59 1.164l-.139 1.387c1.437 1.66.402 7.066.194 10.03-.143 1.205-1.2 2.488-2.003 4.501l.49.084c-.936 1.63-5.341 6.553-7.383 6.3-.988 1.242.197.005.39.317-2.171 2.247-2.854 1.587-4.32 1.992-1.579.937 1.357-.367.608.357-2.732.698-1.935 1.586-5.5 1.94-.375-.213.873-.33 1.186-.607-2.276 1.114-7.202.86-10.403-.618-3.712-1.736-7.885-6.865-8.05-11.69l-.187-.051c.094-1.919-.294-4.138.38-6.175l-.456.965"/>
  <path fill="#ffa200" d="m34.798 28.836.128-.636c-.596-.81-1.07-1.687-1.83-2.318.548 1.067.954 1.508 1.702 2.954m-1.408-1.659c.316.35.501.77.711 1.187-.2-.735-.61-1.367-.99-2.01l.28.823M8.46 30.047l.134-.335c.244-1.734.772-3.45 1.58-5.042a15.892 15.892 0 0 0-1.713 5.377m19.699-2.824c-.612.224-1.506.124-2.158.271.849-.071 1.693-.113 2.526-.22l-.368-.05m21.523.824c-.141-1.307.983-1.815-.248-.952-.662 1.49.257.411.248.952m1.449-1.64c-.284.872-.335 1.395-.444 1.9.785-1.003.362-1.217.444-1.9"/>
  <g fill="#ffa200">
    <path d="M58.136 73.64c-1.014 0-1.921-.433-2.721-1.297-.801-.865-1.201-1.937-1.201-3.218 0-1.28.39-2.327 1.169-3.138.779-.821 1.69-1.232 2.737-1.232 1.046 0 1.9.368 2.561 1.104v-1.062l1.201-1.072 1.2 1.072v8.714h-2.4v-1.136c-.673.843-1.522 1.265-2.546 1.265zm-1.506-4.42c0 .694.208 1.265.624 1.713.417.438.902.656 1.457.656s1.025-.218 1.41-.656c.394-.448.591-1.02.591-1.713 0-.704-.197-1.286-.592-1.745-.384-.47-.86-.704-1.425-.704-.565 0-1.051.235-1.457.704-.405.47-.608 1.051-.608 1.745z"/>
    <path fill-rule="evenodd" d="m60.68 63.161 1.201-1.071 1.2 1.071v1.072l-1.2-1.072-1.2 1.072z"/>
    <path fill-rule="evenodd" d="m60.68 61.529 1.201-1.071 1.2 1.07V62.6l-1.2-1.071-1.2 1.071z"/>
  </g>
  <path fill="#ffa200" d="M41.725 60.501v8.917c0 .33-.27 1.66-.1 1.852.171.182.73.272.965.272.448 0 .609.006 1.136.004l.002 2.093h-1.474c-.822 0-1.521-.272-2.097-.816-.566-.544-.849-2.354-.849-3.293V60.5h1.209z"/>
  <path fill="#ffa200" d="M41.725 65.13v5.356c0 .33.086.592.257.784.17.182.373.272.608.272.448 0 .609.006 1.136.004l.001 1.046v1.047h-1.474c-.822 0-1.52-.272-2.097-.816-.566-.544-.848-1.286-.848-2.225V65.13h1.208z"/>
  <path fill="#333" d="M33.14 73.636c-1.1 0-2.06-.411-2.882-1.233-.821-.822-1.232-1.9-1.232-3.234 0-1.344.421-2.417 1.264-3.217.843-.8 1.82-1.201 2.93-1.201.864 0 1.617.288 2.257.864v-.72h2.417v8.745h-2.417v-.837a3.604 3.604 0 0 1-2.337.833zm-1.697-4.419c0 .705.208 1.28.624 1.73.417.437.902.655 1.457.655s1.025-.218 1.409-.656c.384-.448.576-1.019.576-1.713 0-.704-.192-1.291-.576-1.76-.384-.47-.86-.705-1.425-.705-.566 0-1.051.235-1.457.704-.405.46-.608 1.04-.608 1.745zm-13.798 4.419c-1.1 0-2.06-.411-2.881-1.233-.822-.822-1.233-1.9-1.233-3.234 0-1.344.421-2.417 1.265-3.217.843-.8 1.82-1.201 2.93-1.201.864 0 1.616.288 2.256.864v-.72H22.4v8.745h-2.418v-.837a3.604 3.604 0 0 1-2.337.833zm-1.697-4.419c0 .705.208 1.28.624 1.73.417.437.902.655 1.457.655s1.025-.218 1.409-.656c.384-.448.576-1.019.576-1.713 0-.704-.192-1.291-.576-1.76-.384-.47-.86-.705-1.425-.705-.565 0-1.051.235-1.457.704-.405.46-.608 1.04-.608 1.745z"/>
  <path fill="#ffa200" d="M48.401 73.636c-1.1 0-2.06-.411-2.882-1.233-.821-.822-1.232-1.9-1.232-3.234 0-1.344.421-2.417 1.264-3.217.844-.8 1.82-1.201 2.93-1.201.864 0 1.617.288 2.257.864v-.72h2.417v8.745h-2.417v-.837a3.604 3.604 0 0 1-2.337.833zm-1.697-4.419c0 .705.208 1.28.624 1.73.417.437.902.655 1.457.655s1.025-.218 1.409-.656c.384-.448.576-1.019.576-1.713 0-.704-.192-1.291-.576-1.76-.384-.47-.86-.705-1.425-.705-.565 0-1.051.235-1.457.704-.405.46-.608 1.04-.608 1.745z"/>
  <path fill="#333" d="M26.23 65.144v5.355c0 .331.086.593.257.785.17.181.373.272.608.272.448 0 .609.005 1.137.003v2.094h-1.474c-.821 0-1.52-.272-2.097-.817-.565-.544-.848-1.286-.848-2.225v-5.467l1.208.712z"/>
  <path fill="#333" d="M23.826 70.615v-7.564h2.418v1.865h2.08v1.873h-2.08l-.001 3.714v.27l-1.139.363-1.278-.345M5.34 60.535l-1.381 1.38 1.405 1.405h.205c.685 0 1.296.162 1.832.486a3.22 3.22 0 0 1 1.252 1.328c.312.573.467 1.233.467 1.981 0 .735-.143 1.39-.43 1.963a3.177 3.177 0 0 1-1.196 1.327 3.086 3.086 0 0 1-.578.274c.141.15 1.265 1.113 1.265 1.113l-.9 1.683a7.282 7.282 0 0 0 1.933-.658c1.084-.549 1.919-1.321 2.505-2.318.598-.997.897-2.138.897-3.421 0-1.284-.293-2.418-.879-3.402a5.988 5.988 0 0 0-2.467-2.318c-1.047-.549-2.256-.823-3.627-.823Z"/>
  <path fill="#ffa200" d="M-.002 60.535v13.104h5.269c.4-.001.569-.073.569-.073l.917-1.433-1.468-1.26H3.42V63.32l-.652-.651-.753-.754 1.38-1.38z"/>
  <path d="M74.815 67.325c-.015.016-.015 2.55-.047 3.212-.031.535-.079 1.684-1.212 1.684-1.165 0-1.448-1.338-1.543-1.92-.11-.646-.11-1.181-.11-1.417 0-.756.047-2.866 1.826-2.866.536 0 .835.158 1.07.283l.016 1.026zm-4.565 1.859c0 4.439 2.361 4.439 2.708 4.439.976 0 1.606-.535 1.873-1.464l.032 1.4c.299-.015.598-.046 1.086-.046.173 0 .314 0 .44.016.127 0 .253.015.394.03-.252-.503-.44-1.636-.44-4.093 0-2.393 0-6.438.204-7.667-.566.268-1.055.442-2.125.536.425.456.425.693.425 2.77a3.977 3.977 0 0 0-1.323-.204c-2.818 0-3.274 2.456-3.274 4.284m8.538-.806c.016-1.307.283-2.472 1.4-2.472 1.229 0 1.323 1.353 1.292 2.472zm4.25.156c0-1.842-.362-3.653-2.692-3.653-3.211 0-3.211 3.559-3.211 4.314 0 3.195 1.432 4.455 3.841 4.455 1.07 0 1.59-.157 1.873-.236-.015-.567.063-.93.158-1.417-.33.205-.756.473-1.7.473-2.456 0-2.488-2.237-2.488-3.008h4.188l.031-.93m5.122.681c0 1.464-.268 3.433-2.094 3.433a3.85 3.85 0 0 1-.771-.095c-.032-.567-.032-1.543-.032-2.676 0-1.355.142-2.062.252-2.41.33-1.117 1.07-1.132 1.212-1.132 1.197 0 1.433 1.651 1.433 2.881zm-4.518 1.716c0 1.165 0 1.826-.19 2.33.646.252 1.449.393 2.41.393.614 0 2.393 0 3.353-1.967.456-.914.614-2.142.614-3.07 0-.567-.064-1.81-.52-2.598-.44-.74-1.149-1.118-1.904-1.118-1.512 0-1.952 1.26-2.188 1.905 0-.803.015-3.605.14-5.038-1.022.473-1.652.551-2.329.614.614.252.614 1.292.614 4.677v3.872m9.213 2.63a5.625 5.625 0 0 0-.993-.079c-.503 0-.85.032-1.211.079.157-.3.22-.442.267-1.464.063-1.402.079-5.149-.031-5.936-.079-.599-.22-.693-.44-.85 1.29-.126 1.652-.22 2.25-.504-.125.693-.142 1.04-.142 2.094-.03 5.43-.047 6.014.3 6.66m5.041-4.458c-.031.992-.047 1.685-.315 2.236-.33.709-.881.913-1.29.913-.946 0-1.15-.787-1.15-1.558 0-1.48 1.323-1.59 1.92-1.59zm-4.33 1.937c0 .992.3 1.983 1.182 2.409.393.173.787.173.913.173 1.449 0 1.936-1.07 2.236-1.732-.016.693 0 1.117.047 1.669.283-.016.567-.047 1.04-.047.267 0 .519.03.786.047-.173-.268-.267-.426-.315-1.04-.032-.597-.032-1.196-.032-2.03l.016-3.212c0-1.197-.315-2.377-2.676-2.377-1.559 0-2.471.472-2.928.708.19.347.346.645.488 1.323a3.406 3.406 0 0 1 2.235-.819c1.308 0 1.308.866 1.308 2.094-.3-.016-.552-.047-.977-.047-2 .004-3.323.775-3.323 2.885m13.397.957c.016.536.016 1.102.236 1.56-.347-.032-.551-.08-1.196-.08a4.75 4.75 0 0 0-.882.08c.063-.205.095-.284.126-.552.047-.362.079-1.574.079-2v-1.7c0-.74 0-1.81-.048-2.188-.031-.268-.11-.992-1.023-.992-.898 0-1.197.661-1.307 1.197-.125.55-.125 1.15-.125 3.479.015 2.015.015 2.203.172 2.755a8.708 8.708 0 0 0-1.07-.063c-.378 0-.63.016-.944.063.11-.252.173-.378.204-1.26.032-.866.095-5.117-.048-6.124-.078-.614-.236-.756-.408-.913 1.275-.063 1.684-.268 2.078-.472v1.668c.189-.488.582-1.574 2.157-1.574 1.968 0 1.983 1.432 2 2.376v4.733"/>
  <path fill="#d70751" d="m92.988 62.576-1.304 1.303-1.303-1.303 1.303-1.304 1.304 1.305"/>
  <path fill="#333" d="M65.528 69.437v-1.111l1.456-.015h1.252v1.12l-1.252.003"/>
</svg>
