<svg xmlns="http://www.w3.org/2000/svg" viewBox="0 0 92.769 54.717">
  <g fill="#d70751">
    <path d="M75.082 28.91c-.907.012.17.466 1.354.649.328-.256.623-.513.888-.765-.736.18-1.486.185-2.242.116m4.864-1.213c.542-.745.935-1.561 1.074-2.404-.122.6-.446 1.12-.755 1.668-1.694 1.067-.16-.634 0-1.281-1.822 2.295-.252 1.376-.319 2.017m1.798-4.674c.11-1.633-.32-1.116-.466-.494.169.088.303 1.151.466.494M71.642.706c.485.086 1.047.153.966.269.531-.118.65-.223-.966-.27m.966.27-.34.07.317-.029.023-.041"/>
    <path d="M87.699 23.642c.054 1.466-.428 2.178-.864 3.438l-.785.39c-.641 1.246.064.791-.396 1.782-1.002.89-3.037 2.784-3.689 2.958-.476-.01.322-.562.427-.777-1.34.92-1.076 1.38-3.127 1.94l-.059-.133c-5.054 2.378-12.076-2.335-11.984-8.764-.053.408-.153.306-.265.47-.261-3.308 1.528-6.63 4.545-7.989 2.95-1.46 6.41-.861 8.522 1.11-1.16-1.52-3.471-3.133-6.209-2.984-2.682.044-5.193 1.749-6.03 3.6-1.374.865-1.534 3.335-2.132 3.787-.807 5.923 1.515 8.48 5.443 11.49.616.417.173.48.256.797-1.305-.61-2.499-1.533-3.482-2.662.522.763 1.084 1.504 1.812 2.087-1.231-.416-2.875-2.981-3.354-3.086 2.12 3.798 8.603 6.66 12 5.24-1.572.058-3.568.032-5.332-.62-.744-.382-1.75-1.172-1.57-1.32 4.633 1.73 9.418 1.31 13.427-1.903 1.02-.795 2.134-2.146 2.457-2.164-.485.73.083.35-.29.994 1.015-1.639-.442-.667 1.05-2.83l.55.759c-.205-1.362 1.69-3.013 1.498-5.165.435-.658.485.709.023 2.222.64-1.679.17-1.949.334-3.335.176.466.411.96.53 1.453-.417-1.623.427-2.733.637-3.676-.207-.091-.644.717-.744-1.2.015-.832.232-.435.315-.64-.163-.095-.592-.733-.852-1.957.188-.288.505.746.762.788-.165-.973-.45-1.715-.462-2.462-.753-1.572-.266.21-.876-.675-.8-2.496.664-.58.764-1.713 1.212 1.757 1.903 4.481 2.222 5.61a22.965 22.965 0 0 0-1.113-3.999c.37.156-.594-2.83.48-.852-1.146-4.214-4.902-8.152-8.357-10 .421.387.955.873.764.949-1.72-1.022-1.417-1.103-1.664-1.535-1.398-.57-1.492.047-2.417.001-2.64-1.4-3.148-1.252-5.577-2.128l.11.517c-1.748-.582-2.037.22-3.926.001-.114-.089.606-.325 1.2-.41-1.691.223-1.612-.334-3.266.06.407-.285.839-.475 1.273-.718-1.378.084-3.29.803-2.7.148-2.249 1.004-6.242 2.412-8.483 4.514l-.07-.471c-1.027 1.232-4.477 3.68-4.752 5.278l-.275.064c-.534.905-.88 1.93-1.304 2.86-.698 1.19-1.024.458-.924.645-1.375 2.787-2.059 5.128-2.648 7.049.42.628.01 3.781.169 6.305-.69 12.466 8.749 24.568 19.065 27.362 1.512.541 3.76.522 5.673.575-2.256-.645-2.547-.341-4.746-1.108-1.586-.747-1.933-1.6-3.057-2.575l.445.786c-2.203-.78-1.28-.965-3.073-1.532l.475-.62c-.714-.054-1.892-1.202-2.213-1.84l-.782.03c-.938-1.156-1.438-1.991-1.401-2.639l-.253.45c-.286-.49-3.453-4.343-1.81-3.446-.305-.278-.71-.453-1.15-1.254l.333-.381c-.789-1.018-1.455-2.322-1.404-2.756.422.569.715.676 1.005.773-1.997-4.953-2.11-.272-3.621-5.042l.32-.025c-.245-.371-.395-.771-.592-1.165l.14-1.386c-1.437-1.66-.402-7.066-.194-10.03.143-1.206 1.2-2.489 2.002-4.502l-.489-.083c.936-1.631 5.341-6.553 7.383-6.3.988-1.242-.197-.005-.39-.317 2.171-2.247 2.854-1.588 4.32-1.992 1.579-.938-1.357.366-.608-.358 2.732-.697 1.935-1.586 5.499-1.94.376.214-.872.33-1.185.608 2.275-1.114 7.202-.86 10.403.617 3.712 1.736 7.885 6.866 8.05 11.691l.187.05c-.094 1.92.294 4.138-.38 6.176l.456-.965"/>
    <path d="m65.184 30.154-.128.635c.597.81 1.07 1.688 1.83 2.319-.547-1.067-.953-1.509-1.702-2.954m1.409-.054c-.316-.35-.501-.77-.711-1.187.2.734.61 1.366.99 2.01l-.28-.823m24.93-5.42-.133.336a16.122 16.122 0 0 1-1.58 5.042 15.892 15.892 0 0 0 1.713-5.377M71.823.27C72.435.048 73.329.148 73.98 0c-.848.071-1.692.113-2.525.22l.368.05M50.3 11.716c.14 1.307-.984 1.815.248.952.662-1.49-.257-.411-.249-.952m-1.449 6.052c.285-.872.336-1.395.445-1.9-.785 1.003-.362 1.217-.445 1.9"/>
  </g>
  <path fill="#ffa200" d="M17.687 27.625c.906-.012-.17-.466-1.355-.649-.328.256-.623.514-.887.765.736-.18 1.486-.185 2.242-.116m-4.865-1.469c-.542.746-.935 1.562-1.074 2.405.122-.6.447-1.12.755-1.668 1.695-1.067.16.633.001 1.28 1.822-2.295.252-1.375.318-2.017m-1.798.764c-.11 1.632.321 1.115.466.493-.168-.088-.302-1.152-.466-.494m10.102.574c-.484-.086-1.046-.153-.965-.269-.532.117-.651.223.965.27"/>
  <path fill="#ffa200" d="m20.16 27.394.34-.07-.317.028-.023.042"/>
  <path fill="#ffa200" d="M5.07 31.27c-.055-1.466.428-2.178.864-3.438l.785-.39c.641-1.247-.064-.791.395-1.782 1.003-.89 3.038-2.785 3.69-2.958.476.01-.323.561-.427.777 1.34-.92 1.076-1.381 3.126-1.941l.06.134c5.054-2.379 12.076 2.334 11.984 8.764.053-.408.153-.306.265-.47.26 3.308-1.528 6.63-4.545 7.988-2.95 1.46-6.41.862-8.522-1.11 1.16 1.521 3.471 3.133 6.208 2.984 2.683-.044 5.193-1.748 6.03-3.6 1.374-.864 1.534-3.334 2.133-3.787.806-5.922-1.515-8.48-5.443-11.49-.617-.416-.174-.48-.256-.797 1.304.61 2.498 1.533 3.481 2.662-.521-.762-1.084-1.504-1.811-2.086 1.23.415 2.875 2.98 3.353 3.085-2.12-3.797-8.603-6.66-11.999-5.239 1.572-.058 3.567-.032 5.332.62.743.382 1.75 1.171 1.57 1.319-4.634-1.73-9.419-1.31-13.427 1.903-1.02.795-2.135 2.146-2.457 2.165.485-.73-.083-.351.29-.995-1.015 1.64.442.668-1.05 2.83l-.551-.758c.206 1.361-1.69 3.013-1.497 5.165-.435.657-.485-.71-.024-2.222-.64 1.679-.17 1.949-.333 3.334-.177-.466-.411-.96-.531-1.452.417 1.623-.427 2.732-.637 3.676.208.09.644-.717.745 1.199-.015.832-.232.436-.316.641.163.094.592.732.852 1.956-.187.289-.504-.745-.762-.787.166.972.45 1.715.463 2.462.752 1.571.266-.21.875.674.801 2.497-.664.58-.763 1.713C1.008 40.263.316 37.54-.002 36.41a22.965 22.965 0 0 0 1.113 3.998c-.37-.156.594 2.83-.48.853 1.146 4.214 4.901 8.152 8.357 9.999-.422-.387-.955-.872-.765-.948 1.72 1.022 1.418 1.103 1.664 1.535 1.399.57 1.492-.047 2.418-.002 2.64 1.4 3.148 1.252 5.577 2.128l-.11-.517c1.747.583 2.036-.22 3.925 0 .115.088-.605.324-1.199.41 1.69-.223 1.612.334 3.266-.061-.407.286-.84.475-1.274.718 1.378-.084 3.291-.802 2.7-.148 2.25-1.003 6.242-2.412 8.483-4.513l.07.47c1.027-1.232 4.478-3.68 4.753-5.278l.275-.063c.533-.905.88-1.93 1.303-2.86.699-1.191 1.024-.459.925-.646 1.374-2.786 2.058-5.127 2.647-7.048-.42-.628-.01-3.782-.168-6.305C44.167 15.666 34.729 3.564 24.412.77 22.9.228 20.652.248 18.74.194c2.256.646 2.547.342 4.746 1.108 1.585.748 1.932 1.6 3.056 2.575l-.445-.785c2.203.78 1.281.964 3.074 1.532l-.475.62c.714.054 1.891 1.202 2.213 1.84l.781-.031c.938 1.156 1.439 1.992 1.402 2.64l.252-.451c.286.49 3.454 4.343 1.81 3.446.306.278.711.454 1.151 1.254l-.334.382c.79 1.017 1.455 2.321 1.404 2.756-.422-.57-.714-.676-1.004-.774 1.997 4.954 2.11.273 3.62 5.042l-.319.026c.245.37.395.77.591 1.164l-.14 1.387c1.438 1.66.403 7.066.194 10.03-.142 1.205-1.2 2.488-2.002 4.501l.49.084c-.937 1.63-5.342 6.553-7.383 6.3-.988 1.242.197.005.39.317-2.172 2.247-2.854 1.587-4.32 1.992-1.579.937 1.357-.367.608.357-2.732.698-1.936 1.586-5.5 1.94-.376-.213.873-.33 1.186-.607-2.276 1.114-7.202.86-10.404-.618-3.711-1.736-7.884-6.865-8.05-11.69l-.187-.051c.095-1.919-.293-4.138.38-6.175l-.455.965"/>
  <path fill="#ffa200" d="m27.584 28.836.128-.636c-.596-.81-1.07-1.687-1.83-2.318.547 1.067.953 1.508 1.702 2.954m-1.408-1.659c.315.35.501.77.71 1.187-.2-.735-.61-1.367-.99-2.01l.28.823m-24.929 2.87.133-.335a16.11 16.11 0 0 1 1.58-5.042 15.892 15.892 0 0 0-1.713 5.377m19.699-2.824c-.612.224-1.506.124-2.158.271.848-.071 1.692-.113 2.526-.22l-.368-.05m21.524.824c-.142-1.307.982-1.815-.25-.952-.661 1.49.258.411.25.952m1.448-1.64c-.284.872-.335 1.395-.444 1.9.785-1.003.362-1.217.444-1.9"/>
</svg>
